<svg width="32" height="32" viewBox="0 0 32 32" fill="none" xmlns="http://www.w3.org/2000/svg">
  <rect width="32" height="32" rx="6" fill="#059669"/>
  <path d="M10 6C8.89543 6 8 6.89543 8 8V24C8 25.1046 8.89543 26 10 26H22C23.1046 26 24 25.1046 24 24V11L19 6H10Z" fill="white"/>
  <path d="M18 6V11H23L18 6Z" fill="#D1FAE5"/>
  <rect x="11" y="15" width="6" height="1.5" rx="0.5" fill="#059669"/>
  <rect x="11" y="18" width="6" height="1.5" rx="0.5" fill="#059669"/>
  <path d="M20 21C20.5 21 21 21.5 21 22C21 22.5 21.5 23 22 23.5C22.5 24 22.8 24.5 22.8 25.2C22.8 26.2 22 27 21 27C20 27 19.2 26.2 19.2 25.2C19.2 24.5 19.5 24 20 23.5C20.5 23 21 22.5 21 22C21 21.5 20.5 21 20 21Z" stroke="white" stroke-width="0.8" fill="none"/>
  <circle cx="21" cy="23" r="3.5" stroke="#D1FAE5" stroke-width="0.5" fill="none"/>
</svg>
